<svg width="153" height="43" viewBox="0 0 153 43" fill="none" xmlns="http://www.w3.org/2000/svg">
<path fill-rule="evenodd" clip-rule="evenodd" d="M26.7302 27.9313L21.7751 23.0056L16.8199 27.9313L11.8648 32.857L9.23991 35.4651L6.61502 38.0744L11.5702 43.0001L14.195 40.3908L16.8199 37.7827L21.7751 32.857L26.7302 27.9313ZM35.824 33.6698L38.3016 36.1327L43.2567 31.207L40.7791 28.7441L38.3016 26.2813L33.3464 21.3556L28.3913 16.4299L23.4362 21.3556L28.3913 26.2813L33.3464 31.207L35.824 33.6698ZM34.1641 7.39012L36.6417 4.92727L31.6865 0.00158691L29.209 2.46443L26.7314 4.92727L21.7763 9.85296L16.8212 14.7787L21.7763 19.7043L26.7314 14.7787L31.6865 9.85296L34.1641 7.39012ZM7.58002 8.89492L4.95513 6.28562L0 11.2113L2.62366 13.8194L5.24856 16.4287L10.2037 21.3544L15.1588 26.2801L20.1139 21.3544L15.1588 16.4287L10.2037 11.503L7.57879 8.8937L7.58002 8.89492Z" fill="#2159E4"/>
<path d="M49.1573 10.9048H54.7606L59.2063 17.3829L63.6826 10.9048H69.3768L62.2817 21.0455L69.9857 32.0941H64.2301L59.205 25.0412L54.272 32.0941H48.6379L56.2818 21.2566L49.156 10.9036L49.1573 10.9048ZM70.5959 10.9048H88.4103V14.9616H81.8935V32.0953H77.082V14.9616H70.5959V10.9048ZM99.7693 10.5717C101.901 10.5717 103.839 11.0452 105.585 11.9947C107.331 12.943 108.706 14.2501 109.711 15.9147C110.716 17.5794 111.219 19.4308 111.219 21.4702C111.219 23.5083 110.717 25.3646 109.711 27.0402C108.706 28.7159 107.331 30.0328 105.585 30.9908C103.839 31.9488 101.901 32.4285 99.7693 32.4285C97.638 32.4285 95.6994 31.9488 93.9523 30.9908C92.2065 30.0328 90.8314 28.7208 89.8259 27.0549C88.8216 25.3902 88.3182 23.5278 88.3182 21.4702C88.3182 19.432 88.8204 17.5806 89.8259 15.9147C90.8314 14.2501 92.2016 12.943 93.9376 11.9947C95.6736 11.0464 97.6171 10.5717 99.7693 10.5717ZM99.8307 14.7492C98.6533 14.7492 97.5569 15.047 96.5416 15.6426C95.5263 16.2381 94.7246 17.0497 94.1352 18.0798C93.5459 19.1086 93.2525 20.2387 93.2525 21.4702C93.2525 22.7211 93.5521 23.861 94.1512 24.8911C94.7503 25.9199 95.5521 26.7376 96.5563 27.3429C97.5618 27.9482 98.6521 28.2509 99.8295 28.2509C101.007 28.2509 102.088 27.9531 103.073 27.3576C104.058 26.762 104.84 25.9443 105.418 24.9057C105.996 23.8671 106.286 22.7211 106.286 21.4702C106.286 20.2387 105.996 19.1086 105.418 18.0798C104.84 17.051 104.058 16.2381 103.073 15.6426C102.088 15.047 101.008 14.7492 99.8295 14.7492H99.8307ZM127.482 32.0953L124.102 26.0407H123.645H119.199V32.0953H114.388V10.9048H123.645C126.426 10.9048 128.578 11.5456 130.1 12.827C131.623 14.1085 132.384 15.9196 132.384 18.2604C132.384 19.8946 132.044 21.2932 131.364 22.4526C130.684 23.6133 129.694 24.4956 128.394 25.101L132.932 32.0941H127.48L127.482 32.0953ZM119.198 22.045H123.644C124.983 22.045 126.015 21.7374 126.735 21.1223C127.456 20.506 127.816 19.6041 127.816 18.413C127.816 17.2426 127.456 16.3602 126.735 15.7646C126.015 15.169 124.984 14.8713 123.644 14.8713H119.198V22.045ZM136.434 10.9048H152.665V14.87H141.246V19.4711H151.508V23.4363H141.246V28.1289H153V32.0941H136.434V10.9036V10.9048Z" fill="#2159E4"/>
</svg>
